<svg width="126" height="28" viewBox="0 0 126 28" fill="none" xmlns="http://www.w3.org/2000/svg">
<path d="M0.44 27V0.539999H4.328C6.656 0.539999 8.372 1.188 9.476 2.484C10.58 3.768 11.132 5.664 11.132 8.172C11.132 9.66 10.868 10.95 10.34 12.042C9.824 13.122 9.194 13.914 8.45 14.418L11.096 27H7.208L5.012 15.84H4.328V27H0.44ZM4.328 12.24C5.048 12.24 5.618 12.084 6.038 11.772C6.458 11.448 6.758 10.992 6.938 10.404C7.118 9.816 7.208 9.12 7.208 8.316C7.208 7.056 6.998 6.09 6.578 5.418C6.17 4.734 5.42 4.392 4.328 4.392V12.24ZM14.2972 27L18.2932 0.539999H23.0452L27.0412 27H23.2612L22.5412 21.6H18.7972L18.0772 27H14.2972ZM19.3372 17.496H22.0012L20.8852 8.604L20.7772 7.2H20.5612L20.4532 8.604L19.3372 17.496ZM30.8994 27V0.539999H34.7874V27H30.8994ZM39.4845 27V0.539999H43.1205L46.7205 14.328L47.0445 15.552H47.2605V0.539999H50.8245V27H47.5485L43.5885 13.212L43.2645 11.988H43.0485V27H39.4845ZM58.5477 27V15.732L54.5877 0.539999H58.4037L60.3117 9L60.4377 10.152H60.5457L60.6717 9L62.5797 0.539999H66.3957L62.4357 15.732V27H58.5477ZM70.19 27V0.539999H74.15C75.398 0.539999 76.454 0.743999 77.318 1.152C78.182 1.56 78.878 2.256 79.406 3.24C79.934 4.224 80.312 5.574 80.54 7.29C80.78 9.006 80.9 11.172 80.9 13.788C80.9 16.416 80.78 18.588 80.54 20.304C80.312 22.008 79.934 23.352 79.406 24.336C78.878 25.308 78.182 25.998 77.318 26.406C76.454 26.802 75.398 27 74.15 27H70.19ZM74.078 23.112C75.038 23.112 75.716 22.734 76.112 21.978C76.508 21.222 76.748 20.142 76.832 18.738C76.916 17.334 76.958 15.666 76.958 13.734C76.958 11.778 76.916 10.11 76.832 8.73C76.748 7.338 76.502 6.276 76.094 5.544C75.698 4.8 75.026 4.428 74.078 4.428V23.112ZM84.5745 27L88.5705 0.539999H93.3225L97.3185 27H93.5385L92.8185 21.6H89.0745L88.3545 27H84.5745ZM89.6145 17.496H92.2785L91.1625 8.604L91.0545 7.2H90.8385L90.7305 8.604L89.6145 17.496ZM103.323 27V15.732L99.3627 0.539999H103.179L105.087 9L105.213 10.152H105.321L105.447 9L107.355 0.539999H111.171L107.211 15.732V27H103.323ZM119.645 27.288C118.577 27.288 117.689 27.114 116.981 26.766C116.273 26.406 115.715 25.89 115.307 25.218C114.899 24.546 114.605 23.736 114.425 22.788C114.257 21.84 114.173 20.772 114.173 19.584L117.989 19.224C117.989 19.8 118.007 20.358 118.043 20.898C118.091 21.426 118.169 21.906 118.277 22.338C118.397 22.758 118.565 23.094 118.781 23.346C119.009 23.598 119.297 23.724 119.645 23.724C120.221 23.724 120.629 23.46 120.869 22.932C121.109 22.392 121.229 21.744 121.229 20.988C121.229 20.232 121.031 19.446 120.635 18.63C120.239 17.814 119.765 17.04 119.213 16.308C118.277 15.06 117.455 13.902 116.747 12.834C116.051 11.766 115.505 10.716 115.109 9.684C114.725 8.652 114.533 7.572 114.533 6.444C114.533 5.556 114.647 4.74 114.875 3.996C115.103 3.24 115.433 2.586 115.865 2.034C116.309 1.47 116.843 1.032 117.467 0.719999C118.091 0.407999 118.805 0.251999 119.609 0.251999C120.605 0.251999 121.445 0.419999 122.129 0.755999C122.825 1.092 123.383 1.572 123.803 2.196C124.235 2.82 124.547 3.564 124.739 4.428C124.943 5.28 125.045 6.228 125.045 7.272L121.229 7.632C121.229 7.188 121.205 6.744 121.157 6.3C121.121 5.844 121.049 5.43 120.941 5.058C120.833 4.686 120.677 4.386 120.473 4.158C120.269 3.93 120.005 3.816 119.681 3.816C119.177 3.816 118.829 4.032 118.637 4.464C118.445 4.884 118.349 5.484 118.349 6.264C118.349 7.272 118.619 8.244 119.159 9.18C119.699 10.116 120.425 11.208 121.337 12.456C122.429 13.932 123.317 15.288 124.001 16.524C124.697 17.76 125.045 19.128 125.045 20.628C125.045 21.576 124.943 22.458 124.739 23.274C124.535 24.078 124.211 24.78 123.767 25.38C123.335 25.98 122.777 26.448 122.093 26.784C121.421 27.12 120.605 27.288 119.645 27.288Z" fill="#C2964C"/>
</svg>
