<svg width="36" height="30" viewBox="0 0 36 30" fill="none" xmlns="http://www.w3.org/2000/svg">
<path d="M35 1.0157C35 1.0157 31.8814 2.87591 30.1473 3.40316C29.2164 2.32258 27.9795 1.55668 26.6035 1.20907C25.2276 0.861463 23.7792 0.948894 22.4542 1.45956C21.1291 1.97023 19.9912 2.87948 19.1946 4.06433C18.398 5.2492 17.981 6.6525 18 8.08446V9.6449C15.284 9.71599 12.5929 9.10781 10.1661 7.87449C7.73932 6.64117 5.65231 4.82102 4.09091 2.57613C4.09091 2.57613 -2.09091 16.6201 11.8182 22.8618C8.63536 25.0432 4.84379 26.137 1 25.9827C14.9091 33.7849 31.9091 25.9827 31.9091 8.03765C31.9077 7.60299 31.8663 7.16941 31.7855 6.74249C33.3627 5.1719 35 1.0157 35 1.0157Z" stroke="#C2964C" stroke-width="1.5" stroke-linecap="round" stroke-linejoin="round"/>
</svg>
