<svg width="121" height="121" viewBox="0 0 121 121" fill="none" xmlns="http://www.w3.org/2000/svg">
<path d="M24.9684 50.3374C20.0312 50.3393 15.2044 48.8769 11.0985 46.1352C6.99254 43.3934 3.79202 39.4955 1.90174 34.9345C0.0114731 30.3735 -0.483615 25.3544 0.479108 20.512C1.44183 15.6696 3.81911 11.2215 7.31023 7.73035C10.8013 4.23923 15.2494 1.86195 20.0919 0.899232C24.9343 -0.0634906 29.9534 0.431597 34.5144 2.32187C39.0754 4.21214 42.9733 7.41267 45.7151 11.5186C48.4568 15.6245 49.9192 20.4514 49.9173 25.3885C49.9121 32.0047 47.2822 38.3485 42.6048 43.0278C37.9274 47.707 31.5846 50.3296 24.9684 50.3374ZM24.9684 34.8715C26.844 34.8715 28.6774 34.3153 30.2368 33.2733C31.7963 32.2313 33.0117 30.7503 33.7295 29.0175C34.4472 27.2847 34.635 25.378 34.2691 23.5385C33.9032 21.699 33.0001 20.0093 31.6738 18.6831C30.3476 17.3569 28.6579 16.4537 26.8184 16.0878C24.9789 15.7219 23.0722 15.9097 21.3395 16.6275C19.6067 17.3452 18.1257 18.5607 17.0837 20.1201C16.0417 21.6796 15.4855 23.513 15.4855 25.3885C15.4855 27.9036 16.4846 30.3156 18.263 32.094C20.0414 33.8724 22.4534 34.8715 24.9684 34.8715ZM102.611 15.407L35.2236 116.288C33.696 118.396 31.4109 119.831 28.848 120.291C26.285 120.751 23.6435 120.201 21.4779 118.755C19.3123 117.309 17.7909 115.08 17.2332 112.537C16.6755 109.993 17.1248 107.333 18.4868 105.113L85.8741 4.22308C87.3939 2.09187 89.6839 0.636256 92.2587 0.164747C94.8335 -0.306763 97.4907 0.242899 99.6671 1.69723C101.843 3.15156 103.368 5.39624 103.918 7.9555C104.467 10.5148 103.998 13.1874 102.611 15.407ZM120.99 95.7185C120.992 100.656 119.53 105.483 116.788 109.588C114.046 113.694 110.148 116.895 105.587 118.785C101.026 120.675 96.0072 121.171 91.1648 120.208C86.3224 119.245 81.8743 116.868 78.3832 113.377C74.8921 109.886 72.5148 105.437 71.5521 100.595C70.5893 95.7527 71.0844 90.7335 72.9747 86.1725C74.865 81.6115 78.0655 77.7136 82.1714 74.9719C86.2774 72.2301 91.1042 70.7677 96.0414 70.7697C102.658 70.7748 109.001 73.4047 113.681 78.0821C118.36 82.7595 120.982 89.1023 120.99 95.7185ZM105.524 95.7185C105.524 93.843 104.968 92.0096 103.926 90.4501C102.884 88.8906 101.403 87.6752 99.6703 86.9574C97.9375 86.2397 96.0309 86.0519 94.1914 86.4178C92.3518 86.7837 90.6621 87.6869 89.3359 89.0131C88.0097 90.3393 87.1066 92.029 86.7407 93.8685C86.3748 95.708 86.5626 97.6147 87.2803 99.3475C87.998 101.08 89.2135 102.561 90.7729 103.603C92.3324 104.645 94.1658 105.201 96.0414 105.201C97.2867 105.201 98.5198 104.956 99.6703 104.48C100.821 104.003 101.866 103.305 102.747 102.424C103.627 101.543 104.326 100.498 104.802 99.3475C105.279 98.1969 105.524 96.9638 105.524 95.7185Z" fill="white"/>
</svg>
